# xmcd
#
# Track frame offsets:
# 180
# 15863
# 30300
# 48589
# 67208
# 76488
# 88850
# 102044
# 121260
# 136304
# 159516
#
# Disc length: 2359 seconds
#
#
# Revision: 0
# Processed by: cddbd v1.5.2PL0 Copyright (c) Steve Scherf et al.
# Submitted via: FreeRIP 2.944 
#
DISCID=8309350b
DTITLE=The Delta Rokets - Taking up Space
DYEAR=1996
DGENRE=Blues
TTITLE0=Movin up
TTITLE1=Give it to get it
TTITLE2=Hoodoo'n the Blues
TTITLE3=El Rojo Tejas
TTITLE4=Swing Thang
TTITLE5=What You Ain't Got
TTITLE6=Can't Take My Rest
TTITLE7=How Many More Years
TTITLE8=Born to Lose
TTITLE9=Everybody's Had the Blues
TTITLE10=Penitentiary Blues
EXTD=Texas Blues
EXTT0=
EXTT1=
EXTT2=
EXTT3=
EXTT4=
EXTT5=
EXTT6=
EXTT7=
EXTT8=
EXTT9=
EXTT10=
PLAYORDER=
